<svg width="24" height="24" viewBox="0 0 24 24" fill="none" xmlns="http://www.w3.org/2000/svg">
<path d="M9.5 18C8.95 18 8.47933 17.8043 8.088 17.413C7.696 17.021 7.5 16.55 7.5 16V4C7.5 3.45 7.696 2.979 8.088 2.587C8.47933 2.19567 8.95 2 9.5 2H18.5C19.05 2 19.521 2.19567 19.913 2.587C20.3043 2.979 20.5 3.45 20.5 4V16C20.5 16.55 20.3043 17.021 19.913 17.413C19.521 17.8043 19.05 18 18.5 18H9.5ZM9.5 16H18.5V4H9.5V16ZM5.5 22C4.95 22 4.479 21.8043 4.087 21.413C3.69567 21.021 3.5 20.55 3.5 20V6H5.5V20H16.5V22H5.5Z" fill="#111111"/>
</svg>
