<svg width="24" height="24" viewBox="0 0 24 24" fill="none" xmlns="http://www.w3.org/2000/svg">
<path d="M21.41 11.58L12.41 2.58C12.05 2.22 11.55 2 11 2H4C2.9 2 2 2.9 2 4V11C2 11.55 2.22 12.05 2.59 12.42L11.59 21.42C11.95 21.78 12.45 22 13 22C13.55 22 14.05 21.78 14.41 21.41L21.41 14.41C21.78 14.05 22 13.55 22 13C22 12.45 21.77 11.94 21.41 11.58Z" stroke="#111111" stroke-width="2"/>
<path d="M6.5 8C5.67 8 5 7.33 5 6.5C5 5.67 5.67 5 6.5 5C7.33 5 8 5.67 8 6.5C8 7.33 7.33 8 6.5 8Z" fill="#DADADA" stroke="black" stroke-width="1.5"/>
</svg>
