<svg width="40" height="40" viewBox="0 0 40 40" fill="none" xmlns="http://www.w3.org/2000/svg">
<path d="M8 32L16 24L19.6 27.55L24 22L32 32H8ZM12 16C10.9 16 9.95867 15.608 9.176 14.824C8.392 14.0413 8 13.1 8 12C8 10.9 8.392 9.95867 9.176 9.176C9.95867 8.392 10.9 8 12 8C13.1 8 14.042 8.392 14.826 9.176C15.6087 9.95867 16 10.9 16 12C16 13.1 15.6087 14.0413 14.826 14.824C14.042 15.608 13.1 16 12 16ZM6 40C4.33333 40 2.91667 39.4167 1.75 38.25C0.583333 37.0833 0 35.6667 0 34V6C0 4.33333 0.583333 2.91667 1.75 1.75C2.91667 0.583333 4.33333 0 6 0H34C35.6667 0 37.0833 0.583333 38.25 1.75C39.4167 2.91667 40 4.33333 40 6V34C40 35.6667 39.4167 37.0833 38.25 38.25C37.0833 39.4167 35.6667 40 34 40H6ZM6 36H34C34.5667 36 35.0413 35.808 35.424 35.424C35.808 35.0413 36 34.5667 36 34V6C36 5.43333 35.808 4.958 35.424 4.574C35.0413 4.19133 34.5667 4 34 4H6C5.43333 4 4.958 4.19133 4.574 4.574C4.19133 4.958 4 5.43333 4 6V34C4 34.5667 4.19133 35.0413 4.574 35.424C4.958 35.808 5.43333 36 6 36Z" fill="#323F4B" fill-opacity="0.6"/>
</svg>
