<svg width="40" height="41" viewBox="0 0 40 41" fill="none" xmlns="http://www.w3.org/2000/svg">
<path d="M8 32.2175L16 24.2175L19.6 27.7675L24 22.2175L32 32.2175H8ZM12 16.2175C10.9 16.2175 9.95867 15.8255 9.176 15.0415C8.392 14.2589 8 13.3175 8 12.2175C8 11.1175 8.392 10.1762 9.176 9.39353C9.95867 8.60953 10.9 8.21753 12 8.21753C13.1 8.21753 14.042 8.60953 14.826 9.39353C15.6087 10.1762 16 11.1175 16 12.2175C16 13.3175 15.6087 14.2589 14.826 15.0415C14.042 15.8255 13.1 16.2175 12 16.2175ZM6 40.2175C4.33333 40.2175 2.91667 39.6342 1.75 38.4675C0.583333 37.3009 0 35.8842 0 34.2175V6.21753C0 4.55086 0.583333 3.1342 1.75 1.96753C2.91667 0.800863 4.33333 0.217529 6 0.217529H34C35.6667 0.217529 37.0833 0.800863 38.25 1.96753C39.4167 3.1342 40 4.55086 40 6.21753V34.2175C40 35.8842 39.4167 37.3009 38.25 38.4675C37.0833 39.6342 35.6667 40.2175 34 40.2175H6ZM6 36.2175H34C34.5667 36.2175 35.0413 36.0255 35.424 35.6415C35.808 35.2589 36 34.7842 36 34.2175V6.21753C36 5.65086 35.808 5.17553 35.424 4.79153C35.0413 4.40886 34.5667 4.21753 34 4.21753H6C5.43333 4.21753 4.958 4.40886 4.574 4.79153C4.19133 5.17553 4 5.65086 4 6.21753V34.2175C4 34.7842 4.19133 35.2589 4.574 35.6415C4.958 36.0255 5.43333 36.2175 6 36.2175Z" fill="#C24F4F"/>
</svg>
