<svg width="90" height="69" viewBox="0 0 90 69" fill="none" xmlns="http://www.w3.org/2000/svg">
<path d="M43.1119 42.5717L52.4501 36.7861L60.3461 44.4232L58.1712 33.4615L67.0211 27.5396L57.0783 26.4715L54.6843 15.9891L50.1184 25.7237L40.1756 24.6555L47.5656 32.3221L43.1119 42.5717ZM22.1514 53.5623C20.7152 53.408 19.578 52.8109 18.7399 51.771C17.9017 50.731 17.5598 49.493 17.7141 48.0568L19.076 35.3797C21.1673 35.1574 22.9771 34.3042 24.5055 32.8201C26.0339 31.3359 26.9168 29.4891 27.1541 27.2796C27.3915 25.0701 26.9225 23.0641 25.7472 21.2616C24.572 19.4591 22.9832 18.2547 20.9809 17.6484L22.3429 4.97139C22.4972 3.53521 23.0943 2.39804 24.1342 1.55989C25.1741 0.721731 26.4122 0.379799 27.8483 0.534092L84.1908 6.58713C85.627 6.74143 86.7641 7.33854 87.6023 8.37846C88.4405 9.41839 88.7824 10.6564 88.6281 12.0926L87.2662 24.7697C85.1808 24.9368 83.3725 25.7762 81.8411 27.2879C80.3098 28.7997 79.4254 30.6603 79.188 32.8698C78.9507 35.0793 79.4211 37.0715 80.5994 38.8464C81.7776 40.6213 83.3649 41.8395 85.3612 42.501L83.9993 55.178C83.845 56.6142 83.2479 57.7514 82.208 58.5895C81.168 59.4277 79.93 59.7696 78.4938 59.6153L22.1514 53.5623Z" fill="#97ADBC"/>
<g clip-path="url(#clip0_280_10812)">
<path fill-rule="evenodd" clip-rule="evenodd" d="M73.8969 9.08346C73.1514 10.2935 72.765 11.5857 72.769 12.7754C73.2141 14.0116 73.615 14.389 74.0081 15.0183C73.5171 14.8548 73.0814 14.6765 72.6093 13.8055C72.4934 15.3734 72.2504 17.5238 74.8098 20.6203C74.2114 20.5228 73.5679 20.007 72.9808 19.2907C73.2797 20.2649 73.7456 21.117 74.7145 21.6498C74.2537 21.7634 73.7421 21.7256 73.2159 21.6436C73.7874 22.0638 74.4533 22.3644 75.2203 22.5376C75.0571 22.821 74.6331 22.9708 74.1973 23.1135L75.4306 23.3057L75.8403 23.8258C77.3982 21.7006 77.4369 16.7444 75.5503 12.0233C77.8927 15.4946 78.7263 22.2443 74.9799 26.0824L77.5965 24.2231L78.3721 24.1503C78.2126 24.0301 78.0452 23.8996 77.7412 23.5852C78.4312 23.6114 79.0409 23.5221 79.5141 23.2401C79.071 23.1763 78.624 23.1137 78.3875 22.9245C79.4503 22.4056 80.1522 21.6362 80.5617 20.7033C79.889 21.384 79.2909 21.808 78.672 21.8009C81.8372 18.6523 81.2171 14.5838 80.118 13.1091C79.9592 15.2315 79.7614 15.7831 79.4319 16.4657C80.2206 12.195 78.5779 9.52879 73.8969 9.08346Z" fill="#B5C6D2"/>
</g>
<rect x="35.5156" y="13.4268" width="35" height="30" transform="rotate(6.13194 35.5156 13.4268)" fill="#97ADBC"/>
<path d="M34.7357 49.7742L41.4469 41.0775L51.5222 45.4549L45.636 35.9554L51.8422 27.3025L42.1577 29.7944L36.2346 20.8207L35.3785 31.5388L25.694 34.0307L35.3058 38.6134L34.7357 49.7742ZM18.9705 67.4264C17.5716 67.7863 16.2972 67.6266 15.1472 66.9473C13.9972 66.268 13.2422 65.2289 12.8823 63.8301L9.70505 51.4823C11.585 50.5396 12.9799 49.1051 13.8896 47.1787C14.7994 45.2524 14.9774 43.2131 14.4237 41.061C13.8699 38.9089 12.7263 37.1954 10.9928 35.9205C9.25926 34.6456 7.34871 34.0759 5.26109 34.2115L2.08386 21.8638C1.72391 20.4649 1.88359 19.1904 2.56289 18.0404C3.24219 16.8904 4.28128 16.1355 5.68016 15.7755L60.5592 1.65451C61.9581 1.29456 63.2325 1.45424 64.3825 2.13354C65.5325 2.81284 66.2875 3.85193 66.6474 5.25081L69.8246 17.5986C67.9308 18.4874 66.5325 19.9085 65.6297 21.8618C64.7268 23.815 64.5523 25.8677 65.1061 28.0199C65.6598 30.172 66.8 31.872 68.5266 33.12C70.2531 34.3681 72.1671 34.9512 74.2686 34.8693L77.4458 47.2171C77.8058 48.616 77.6461 49.8904 76.9668 51.0404C76.2875 52.1904 75.2484 52.9454 73.8495 53.3054L18.9705 67.4264Z" fill="#B5C6D2"/>
<g clip-path="url(#clip1_280_10812)">
<path fill-rule="evenodd" clip-rule="evenodd" d="M51.6492 7.81333C51.3761 9.20814 51.4682 10.5537 51.8897 11.6662C52.7407 12.6674 53.2486 12.8799 53.8377 13.331C53.3205 13.3504 52.85 13.3365 52.102 12.6867C52.5442 14.1955 53.0719 16.2942 56.5558 18.2946C55.9613 18.4134 55.1777 18.1565 54.3763 17.6921C54.9983 18.4993 55.7339 19.1334 56.8282 19.2919C56.4366 19.5602 55.9443 19.7044 55.4229 19.8125C56.1055 20.0052 56.8346 20.0528 57.6135 19.9455C57.5603 20.2682 57.2159 20.5574 56.858 20.844L58.0802 20.5909L58.6465 20.934C59.3587 18.397 57.6543 13.7429 54.2297 9.98517C57.6421 12.4127 60.7932 18.4396 58.6334 23.349L60.4303 20.6891L61.131 20.3486C60.9394 20.2921 60.7369 20.2286 60.3417 20.041C60.997 19.8233 61.5365 19.5255 61.8805 19.0952C61.4432 19.1912 61.0028 19.2895 60.7148 19.1955C61.5277 18.3363 61.9147 17.3694 61.9704 16.3522C61.5796 17.2257 61.1686 17.8328 60.5867 18.0435C62.4443 13.9838 60.4348 10.3923 58.8878 9.39753C59.4845 11.4405 59.4931 12.0265 59.4243 12.7813C58.6628 8.50564 56.1883 6.58625 51.6492 7.81333Z" fill="#97ADBC"/>
<path fill-rule="evenodd" clip-rule="evenodd" d="M51.0489 12.3761C50.9889 12.5737 50.9851 12.7891 51.0455 12.9976C51.3933 14.1851 51.7883 15.7024 53.3595 17.276C53.2125 17.6292 53.2579 18.0447 53.5022 18.3615C53.7847 18.7288 54.0884 19.0633 54.4261 19.3512C54.3651 19.4812 54.3288 19.6243 54.323 19.7738C54.3035 20.2779 54.6331 20.7296 55.12 20.8676C55.333 20.9275 55.5491 20.9761 55.7691 21.0131C55.7844 21.1156 55.8152 21.2162 55.8612 21.3137C56.0777 21.7714 56.5817 22.0213 57.0802 21.9184L57.8768 21.7537L58.0021 21.8297C57.9062 22.1952 57.7812 22.557 57.6255 22.9117C57.3968 23.432 57.6036 24.0387 58.1035 24.3107C58.6027 24.5829 59.2293 24.43 59.5482 23.9588L61.1799 21.5444L61.6136 21.3331C62.0144 21.1379 62.2571 20.7236 62.2309 20.2827C62.4245 20.1287 62.596 19.9594 62.743 19.7753C63.0331 19.412 63.063 18.9066 62.8169 18.5133C62.7645 18.4288 62.701 18.354 62.6301 18.2887C62.8952 17.6842 63.036 17.054 63.0716 16.4075C63.0972 15.944 62.8272 15.5229 62.4109 15.3446C62.6453 12.0202 60.8707 9.36405 59.4886 8.47497C59.2459 8.31857 58.9578 8.26763 58.6853 8.31985C58.3523 7.93103 57.9805 7.59991 57.5725 7.32505C56.0715 6.3175 54.0242 6.03837 51.3647 6.75627C50.9583 6.86604 50.6505 7.19626 50.5693 7.60702C50.254 9.21821 50.3731 10.772 50.8601 12.0568C50.9041 12.173 50.9679 12.2809 51.0482 12.3762L51.0489 12.3761ZM51.6507 7.81496C51.3776 9.20977 51.4698 10.5554 51.8913 11.6678C52.7423 12.669 53.2502 12.8816 53.8393 13.3327C53.322 13.3521 52.8515 13.3381 52.1036 12.6884C52.5457 14.1971 53.0734 16.2959 56.5574 18.2962C55.9629 18.4151 55.1792 18.1581 54.3779 17.6937C54.9999 18.5009 55.7354 19.135 56.8297 19.2936C56.4381 19.5618 55.9459 19.7061 55.4244 19.8141C56.1071 20.0068 56.8361 20.0545 57.6151 19.9472C57.5619 20.2699 57.2175 20.559 56.8596 20.8457L58.0818 20.5925L58.648 20.9356C59.3603 18.3986 57.6558 13.7445 54.2312 9.9868C57.6436 12.4143 60.7948 18.4412 58.635 23.3506L60.4319 20.6908L61.1325 20.3502C60.9409 20.2937 60.7384 20.2303 60.3433 20.0426C60.9986 19.8249 61.5381 19.5271 61.8821 19.0969C61.4448 19.1928 61.0043 19.2911 60.7164 19.1971C61.5293 18.338 61.9162 17.371 61.972 16.3538C61.5812 17.2274 61.1702 17.8344 60.5882 18.0451C62.4459 13.9855 60.4363 10.394 58.8894 9.39916C59.486 11.4422 59.4946 12.0281 59.4259 12.783C58.6643 8.50728 56.1899 6.58789 51.6507 7.81496Z" fill="#B5C6D2"/>
</g>
<defs>
<clipPath id="clip0_280_10812">
<rect width="10.8494" height="18.9865" fill="white" transform="translate(72.127 7.7959) rotate(5.94195)"/>
</clipPath>
<clipPath id="clip1_280_10812">
<rect width="10.8494" height="18.9865" fill="white" transform="translate(49.541 7.23145) rotate(-14.6198)"/>
</clipPath>
</defs>
</svg>
