<svg width="24" height="24" viewBox="0 0 24 24" fill="none" xmlns="http://www.w3.org/2000/svg">
<mask id="mask0_276_2428" style="mask-type:alpha" maskUnits="userSpaceOnUse" x="0" y="0" width="24" height="24">
<rect width="24" height="24" fill="#D9D9D9"/>
</mask>
<g mask="url(#mask0_276_2428)">
<path d="M4 20C3.45 20 2.97933 19.8043 2.588 19.413C2.196 19.021 2 18.55 2 18V14C2.55 14 3.021 13.804 3.413 13.412C3.80433 13.0207 4 12.55 4 12C4 11.45 3.80433 10.979 3.413 10.587C3.021 10.1957 2.55 10 2 10V6C2 5.45 2.196 4.97933 2.588 4.588C2.97933 4.196 3.45 4 4 4H20C20.55 4 21.021 4.196 21.413 4.588C21.8043 4.97933 22 5.45 22 6V10C21.45 10 20.979 10.1957 20.587 10.587C20.1957 10.979 20 11.45 20 12C20 12.55 20.1957 13.0207 20.587 13.412C20.979 13.804 21.45 14 22 14V18C22 18.55 21.8043 19.021 21.413 19.413C21.021 19.8043 20.55 20 20 20H4ZM4 18H20V15.45C19.3667 15.1 18.875 14.6123 18.525 13.987C18.175 13.3623 18 12.7 18 12C18 11.3 18.175 10.6373 18.525 10.012C18.875 9.38733 19.3667 8.9 20 8.55V6H4V8.55C4.63333 8.9 5.125 9.38733 5.475 10.012C5.825 10.6373 6 11.3 6 12C6 12.7 5.825 13.3623 5.475 13.987C5.125 14.6123 4.63333 15.1 4 15.45V18ZM9.2 16L12 13.9L14.75 16L13.7 12.6L16.5 10.4H13.1L12 7L10.9 10.4H7.5L10.25 12.6L9.2 16Z" fill="#111111"/>
</g>
</svg>
