<svg width="24" height="24" viewBox="0 0 24 24" fill="none" xmlns="http://www.w3.org/2000/svg">
<path d="M5.42188 10.4892L7.62187 11.4142C7.88854 10.8642 8.17621 10.3392 8.48487 9.83916C8.79287 9.33916 9.13021 8.83916 9.49687 8.33916L8.04688 8.06416C7.98021 8.04749 7.92621 8.04749 7.88488 8.06416C7.84288 8.08082 7.79688 8.10582 7.74687 8.13916L5.42188 10.4892ZM8.82187 12.3642L11.6469 15.1892C12.3969 14.8725 13.1719 14.4392 13.9719 13.8892C14.7719 13.3392 15.5302 12.7058 16.2469 11.9892C17.3635 10.8725 18.2302 9.65149 18.8469 8.32616C19.4635 7.00149 19.7719 5.63916 19.7719 4.23916C18.3719 4.23916 17.0095 4.54316 15.6849 5.15116C14.3595 5.75982 13.1302 6.63082 11.9969 7.76416C11.2802 8.48082 10.6469 9.23916 10.0969 10.0392C9.54688 10.8392 9.12187 11.6142 8.82187 12.3642ZM13.6219 10.3642C13.2885 10.0142 13.1219 9.59749 13.1219 9.11416C13.1219 8.63082 13.2885 8.22249 13.6219 7.88916C13.9719 7.55582 14.3925 7.38916 14.8839 7.38916C15.3759 7.38916 15.7885 7.55582 16.1219 7.88916C16.4552 8.22249 16.6219 8.63082 16.6219 9.11416C16.6219 9.59749 16.4552 10.0142 16.1219 10.3642C15.7885 10.6975 15.3759 10.8642 14.8839 10.8642C14.3925 10.8642 13.9719 10.6975 13.6219 10.3642ZM13.5219 18.5892L15.8469 16.2642C15.8969 16.2142 15.9302 16.1682 15.9469 16.1262C15.9635 16.0848 15.9635 16.0308 15.9469 15.9642L15.6469 14.5142C15.1635 14.8808 14.6679 15.2142 14.1599 15.5142C13.6512 15.8142 13.1302 16.1058 12.5969 16.3892L13.5219 18.5892ZM21.1219 2.86416C21.3385 4.79749 21.1135 6.62649 20.4469 8.35116C19.7802 10.0765 18.6802 11.7058 17.1469 13.2392L17.0589 13.3262L16.9719 13.4142L17.4219 15.6642C17.4719 15.9642 17.4552 16.2602 17.3719 16.5522C17.2885 16.8435 17.1385 17.0892 16.9219 17.2892L12.9969 21.2142L11.1219 16.7892L7.19687 12.8642L2.79688 10.9892L6.69687 7.06416C6.89687 6.86416 7.14288 6.71816 7.43488 6.62616C7.72621 6.53482 8.02187 6.51416 8.32187 6.56416L10.6219 7.03916C10.6552 7.00582 10.6802 6.97682 10.6969 6.95216C10.7135 6.92682 10.7385 6.89749 10.7719 6.86416C12.3052 5.33082 13.9345 4.22649 15.6599 3.55116C17.3845 2.87649 19.2052 2.64749 21.1219 2.86416ZM4.52188 15.9392C5.00521 15.4558 5.59688 15.2098 6.29688 15.2012C6.99688 15.1932 7.58854 15.4392 8.07187 15.9392C8.57187 16.4225 8.81754 17.0142 8.80888 17.7142C8.80088 18.4142 8.55521 19.0058 8.07187 19.4892C7.68854 19.8725 7.06787 20.1975 6.20987 20.4642C5.35121 20.7308 4.23854 20.9475 2.87188 21.1142C3.03854 19.7642 3.25954 18.6602 3.53488 17.8022C3.80954 16.9435 4.13854 16.3225 4.52188 15.9392ZM5.59687 16.9892C5.41354 17.1725 5.23854 17.4848 5.07187 17.9262C4.90521 18.3682 4.78854 18.8142 4.72187 19.2642C5.18854 19.2142 5.63854 19.1058 6.07187 18.9392C6.50521 18.7725 6.81354 18.5975 6.99687 18.4142C7.19687 18.2142 7.30088 17.9725 7.30888 17.6892C7.31754 17.4058 7.22188 17.1642 7.02188 16.9642C6.82188 16.7642 6.58421 16.6682 6.30887 16.6762C6.03421 16.6848 5.79688 16.7892 5.59687 16.9892Z" fill="#277EC0"/>
</svg>
