<svg width="17" height="16" viewBox="0 0 17 16" fill="none" xmlns="http://www.w3.org/2000/svg">
<path d="M7.38228 0.927054C7.68163 0.00574303 8.98504 0.0057404 9.28439 0.927051L10.4288 4.44917C10.5627 4.8612 10.9466 5.14016 11.3799 5.14016H15.0832C16.052 5.14016 16.4547 6.37977 15.671 6.94917L12.6749 9.12597C12.3244 9.38061 12.1778 9.83198 12.3117 10.244L13.4561 13.7661C13.7554 14.6874 12.7009 15.4536 11.9172 14.8842L8.92112 12.7074C8.57063 12.4527 8.09604 12.4527 7.74555 12.7074L4.74945 14.8842C3.96574 15.4536 2.91126 14.6874 3.21061 13.7661L4.35502 10.244C4.48889 9.83198 4.34223 9.38061 3.99174 9.12597L0.99565 6.94918C0.211936 6.37978 0.614709 5.14016 1.58343 5.14016H5.28681C5.72004 5.14016 6.104 4.8612 6.23787 4.44917L7.38228 0.927054Z" fill="#FE7831"/>
</svg>
