<svg width="17" height="16" viewBox="0 0 17 16" fill="none" xmlns="http://www.w3.org/2000/svg">
<path d="M7.71559 0.927054C8.01494 0.00574303 9.31835 0.0057404 9.6177 0.927051L10.7621 4.44917C10.896 4.8612 11.2799 5.14016 11.7132 5.14016H15.4165C16.3853 5.14016 16.788 6.37977 16.0043 6.94917L13.0082 9.12597C12.6577 9.38061 12.5111 9.83198 12.645 10.244L13.7894 13.7661C14.0887 14.6874 13.0342 15.4536 12.2505 14.8842L9.25443 12.7074C8.90394 12.4527 8.42935 12.4527 8.07886 12.7074L5.08277 14.8842C4.29905 15.4536 3.24457 14.6874 3.54392 13.7661L4.68833 10.244C4.8222 9.83198 4.67554 9.38061 4.32506 9.12597L1.32896 6.94918C0.545249 6.37978 0.948022 5.14016 1.91675 5.14016H5.62013C6.05335 5.14016 6.43731 4.8612 6.57118 4.44917L7.71559 0.927054Z" fill="#C1C0C0"/>
</svg>
